<svg width="80" height="48" viewBox="0 0 80 48" fill="none" xmlns="http://www.w3.org/2000/svg">
<path d="M4 -5.15374e-06C3.60247 -0.0056273 3.20778 0.0678166 2.83887 0.216058C2.46997 0.364299 2.13421 0.584381 1.8511 0.863515C1.56799 1.14265 1.34318 1.47527 1.18974 1.84204C1.03629 2.20881 0.957275 2.60242 0.957275 2.99999C0.957275 3.39757 1.03629 3.79118 1.18974 4.15795C1.34318 4.52473 1.56799 4.85734 1.8511 5.13648C2.13421 5.41561 2.46997 5.63569 2.83887 5.78393C3.20778 5.93217 3.60247 6.00562 4 5.99999H76C76.3975 6.00562 76.7922 5.93217 77.1611 5.78393C77.53 5.63569 77.8658 5.41561 78.1489 5.13648C78.432 4.85734 78.6568 4.52473 78.8103 4.15795C78.9637 3.79118 79.0427 3.39757 79.0427 2.99999C79.0427 2.60242 78.9637 2.20881 78.8103 1.84204C78.6568 1.47527 78.432 1.14265 78.1489 0.863515C77.8658 0.584381 77.53 0.364299 77.1611 0.216058C76.7922 0.0678166 76.3975 -0.0056273 76 -5.15374e-06H4ZM4 21C3.60247 20.9944 3.20778 21.0678 2.83887 21.2161C2.46997 21.3643 2.13421 21.5844 1.8511 21.8635C1.56799 22.1426 1.34318 22.4753 1.18974 22.842C1.03629 23.2088 0.957275 23.6024 0.957275 24C0.957275 24.3976 1.03629 24.7912 1.18974 25.158C1.34318 25.5247 1.56799 25.8573 1.8511 26.1365C2.13421 26.4156 2.46997 26.6357 2.83887 26.7839C3.20778 26.9322 3.60247 27.0056 4 27H76C76.3975 27.0056 76.7922 26.9322 77.1611 26.7839C77.53 26.6357 77.8658 26.4156 78.1489 26.1365C78.432 25.8573 78.6568 25.5247 78.8103 25.158C78.9637 24.7912 79.0427 24.3976 79.0427 24C79.0427 23.6024 78.9637 23.2088 78.8103 22.842C78.6568 22.4753 78.432 22.1426 78.1489 21.8635C77.8658 21.5844 77.53 21.3643 77.1611 21.2161C76.7922 21.0678 76.3975 20.9944 76 21H4ZM4 42C3.60247 41.9944 3.20778 42.0678 2.83887 42.2161C2.46997 42.3643 2.13421 42.5844 1.8511 42.8635C1.56799 43.1426 1.34318 43.4753 1.18974 43.842C1.03629 44.2088 0.957275 44.6024 0.957275 45C0.957275 45.3976 1.03629 45.7912 1.18974 46.158C1.34318 46.5247 1.56799 46.8573 1.8511 47.1365C2.13421 47.4156 2.46997 47.6357 2.83887 47.7839C3.20778 47.9322 3.60247 48.0056 4 48H76C76.3975 48.0056 76.7922 47.9322 77.1611 47.7839C77.53 47.6357 77.8658 47.4156 78.1489 47.1365C78.432 46.8573 78.6568 46.5247 78.8103 46.158C78.9637 45.7912 79.0427 45.3976 79.0427 45C79.0427 44.6024 78.9637 44.2088 78.8103 43.842C78.6568 43.4753 78.432 43.1426 78.1489 42.8635C77.8658 42.5844 77.53 42.3643 77.1611 42.2161C76.7922 42.0678 76.3975 41.9944 76 42H4Z" fill="#666666"/>
</svg>
